<svg id="Smart_control" width="1000" height="1000" viewBox="0 0 64 64"  xmlns="http://www.w3.org/2000/svg" xmlns:xlink="http://www.w3.org/1999/xlink" data-name="Smart control">
    <linearGradient id="gradient_ice" gradientUnits="userSpaceOnUse" x1="-.653" x2="52.413" y1="69.74" y2="16.674">
        <stop offset="0" stop-color="#793bc6"/>
        <stop offset="1" stop-color="#c07ad2"/>
    </linearGradient>
    <linearGradient id="gradient_ice-2" x1="-15.696" x2="37.369" xlink:href="#gradient_ice" y1="54.696" y2="1.631"/>
    <linearGradient id="gradient_ice-3" x1="-4.196" x2="48.869" xlink:href="#gradient_ice" y1="66.196" y2="13.131"/>
    <linearGradient id="gradient_ice-4" x1="-6.318" x2="46.748" xlink:href="#gradient_ice" y1="64.075" y2="11.009"/>
    <linearGradient id="gradient_ice-5" x1="-7.732" x2="45.334" xlink:href="#gradient_ice" y1="62.661" y2="9.595"/>
    <linearGradient id="gradient_ice-6" x1="-9.146" x2="43.92" xlink:href="#gradient_ice" y1="61.247" y2="8.181"/>
    <linearGradient id="gradient_ice-7" x1="12.304" x2="65.369" xlink:href="#gradient_ice" y1="82.696" y2="29.631"/>
    <linearGradient id="gradient_ice-8" x1="2.804" x2="55.869" xlink:href="#gradient_ice" y1="73.196" y2="20.131"/>
    <path d="m60.64 36.93a.922.922 0 0 0 .36.07 1 1 0 0 0 1-1v-6a.989.989 0 0 0 -.64-.93l-21-8a.994.994 0 0 0 -.72 0l-9.64 3.67v-14.74a3.009 3.009 0 0 0 -3-3h-18a3.009 3.009 0 0 0 -3 3v7.81l-3.79 9.46a3.051 3.051 0 0 0 -.21 1.12v10.28a5.075 5.075 0 0 0 1 3l.66.88a4.988 4.988 0 0 1 .92 3.87l-1.57 14.47a.975.975 0 0 0 .25.78 1 1 0 0 0 .74.33h11a.981.981 0 0 0 .75-.34.968.968 0 0 0 .24-.78l-1.86-15.26a1.015 1.015 0 0 1 .15-.74l.59-.88h7.13v12h-3a1 1 0 0 0 -1 1v4a1 1 0 0 0 1 1h42a1 1 0 0 0 1-1v-4a1 1 0 0 0 -1-1h-3v-20.07zm-30.64 4.07v-8.12l10-3.81 16 6.1v20.83h-19v-13a1 1 0 0 0 -1-1h-6.18a3 3 0 0 0 .18-1zm-1 10h2v-2h-2v-5h6v12h-6zm-16.71-14.29.54.53a4 4 0 0 1 1.17 2.83v.42a3.993 3.993 0 0 1 -.67 2.22l-.71 1.06a2.94 2.94 0 0 0 -.47 2.15l1.72 14.08h-8.75l1.44-13.3a7 7 0 0 0 -1.3-5.35l-.66-.88a3.018 3.018 0 0 1 -.6-1.8v-10.28a.986.986 0 0 1 .07-.38l1.93-4.82v6.4a1.983 1.983 0 0 0 .59 1.41l1.15 1.15a2 2 0 0 0 2.44.31l3.12-1.88a.82.82 0 0 1 1.12 1.12l-2.28 3.79a1.014 1.014 0 0 0 .15 1.22zm2.11-.71c-.05-.05-.09-.11-.14-.15l1.87-3.12a2.812 2.812 0 0 0 -3.86-3.86l-.27.16v-16.03h12v23zm1.39 6a5.915 5.915 0 0 0 .21-1.51v-.42a6.018 6.018 0 0 0 -.37-2.07h9.37a1 1 0 0 0 1-1v-25a1 1 0 0 0 -1-1h-14a1 1 0 0 0 -1 1v18.23l-.84.51-1.16-1.15v-19.59a1 1 0 0 1 1-1h18a1 1 0 0 1 1 1v31a1 1 0 0 1 -1 1zm11.21 2v12h-3v-12zm33 14v2h-40v-2zm-19.64-30.93a.994.994 0 0 0 -.72 0l-9.64 3.67v-3.86l10-3.81 20 7.62v3.86z" fill="url(#gradient_ice)"/>
    <path d="m18 17a4 4 0 1 0 4 4 4 4 0 0 0 -4-4zm0 6a2 2 0 1 1 2-2 2 2 0 0 1 -2 2z" fill="url(#gradient_ice-2)"/>
    <path d="m44.586 14.586a2 2 0 1 0 2.828 0 2 2 0 0 0 -2.828 0z" fill="url(#gradient_ice-3)"/>
    <path d="m50.242 11.757a6 6 0 0 0 -8.484 0l1.414 1.414a4.1 4.1 0 0 1 5.656 0z" fill="url(#gradient_ice-4)"/>
    <path d="m53.071 8.929a10 10 0 0 0 -14.142 0l1.414 1.414a8 8 0 0 1 11.314 0z" fill="url(#gradient_ice-5)"/>
    <path d="m54.485 7.515 1.415-1.415a14.016 14.016 0 0 0 -19.8 0l1.414 1.414a12.014 12.014 0 0 1 16.971.001z" fill="url(#gradient_ice-6)"/>
    <path d="m42 43v8a1 1 0 0 0 1 1h10a1 1 0 0 0 1-1v-8a1 1 0 0 0 -1-1h-10a1 1 0 0 0 -1 1zm2 1h8v6h-8z" fill="url(#gradient_ice-7)"/>
    <path d="m36 36a4 4 0 1 0 4-4 4 4 0 0 0 -4 4zm6 0a2 2 0 1 1 -2-2 2 2 0 0 1 2 2z" fill="url(#gradient_ice-8)"/>
</svg>

