<svg height="512" preserveAspectRatio="none" viewBox="0 0 64 64" width="512" xmlns="http://www.w3.org/2000/svg">
    <path d="m6 54h50v-33h-4v-4h-4v4h-6v-4h2l-4-4-4 4h2v4h-2a7 7 0 0 1 -3.6-13h-26.4zm26-30a12.9 12.9 0 0 1 3 .35h3v.65h3v2.62a13 13 0 1 1 -9-3.62z" fill="#8c43e6"/>
    <path d="m28 28v18l14-9z" fill="#8c43e6"/>
    <g fill="#5e2c99">
        <path d="m62 17.5a4.5 4.5 0 0 0 -2-3.738v-8.762a1 1 0 0 0 -1-1h-5.355a8.975 8.975 0 0 0 -11.3 0h-39.345a1 1 0 0 0 -1 1v56a1 1 0 0 0 1 1h56a1 1 0 0 0 1-1v-39.762a4.5 4.5 0 0 0 2-3.738zm-4-4.449a4.342 4.342 0 0 0 -.5-.051h-.5v-5a.994.994 0 0 0 -.944-.989 9.076 9.076 0 0 0 -.578-1.011h2.522zm0 46.949h-54v-54h36.52a9.22 9.22 0 0 0 -.578 1h-.08a7.961 7.961 0 0 0 -7.726 0h-26.136a1 1 0 0 0 -1 1v46a1 1 0 0 0 1 1h50a1 1 0 0 0 1-1v-32h.5a4.342 4.342 0 0 0 .5-.051zm-20-34h4a1 1 0 0 0 1-1v-3h4v2h-1a1 1 0 0 0 -.707 1.707l4 4a1 1 0 0 0 1.414 0l4-4a1 1 0 0 0 -.707-1.707h-1v-2h2v31h-48v-44h22.765a7.991 7.991 0 0 0 6.235 13h1v3a1 1 0 0 0 1 1zm.351-9.937 1.649-1.649 1.649 1.649a1 1 0 0 0 -.649.937v7h-2v-7a1 1 0 0 0 -.649-.937zm13.3 9.874-1.651 1.649-1.649-1.649a1 1 0 0 0 .649-.937v-7h2v7a1 1 0 0 0 .649.937zm5.849-5.937h-4.5v-3a1 1 0 0 0 -1-1h-4a1 1 0 0 0 -1 1v3h-4v-2h1a1 1 0 0 0 .707-1.707l-4-4a1 1 0 0 0 -1.414 0l-4 4a1 1 0 0 0 .707 1.707h1v2h-1a6 6 0 1 1 3.761-10.673 1 1 0 0 0 1.581-.473 7 7 0 1 1 13.142 4.768 1 1 0 0 0 .926 1.378h2.09a2.5 2.5 0 0 1 0 5z"/><path d="m27.521 27.122a1 1 0 0 0 -.521.878v18a1 1 0 0 0 1.541.841l14-9a1 1 0 0 0 0-1.682l-14-9a1 1 0 0 0 -1.02-.037zm1.479 2.71 11.15 7.168-11.15 7.168z"/>
        <path d="m32 49a12 12 0 1 1 2.771-23.679l.458-1.947a14 14 0 1 0 10.771 13.626 13.883 13.883 0 0 0 -4.308-10.1l-1.384 1.444a12 12 0 0 1 -8.308 20.656z"/></g></svg>