<svg xmlns="http://www.w3.org/2000/svg"  preserveAspectRatio="none" width="100%" height="40%"  viewBox="0 -12 1933.65 966.17">
    <defs><style>.cls-1{fill: #593780;}</style>
    </defs><g id="Layer_2" data-name="Layer 2">
    <g id="Layer_1-2" data-name="Layer 1">
        <path class="cls-1" d="M1934.17,80.32c0-.32,17,87.17,17,92.68s-490,44-394,100,202,183,238,150,44-75,60-33,70.14,273.4-115.93,485.2-261.59,6.14-466.83-54S1062.17,588,1031.17,630s-83,184-134,144-261-182-272-154-135,140-213,101c0,0-26,97-82,75s-338,95.16-330,154.08V842l14-841,1920-1Z"/>
    </g>
</g>
</svg>