<svg xmlns="http://www.w3.org/2000/svg"  preserveAspectRatio="none" width="100%" height="40%"  viewBox="5 -5 1933.65 966.17"><defs><style>.cls-1{fill:#d89c9c;opacity:0.39;}</style></defs><g id="Layer_2" data-name="Layer 2"><g id="Layer_1-2" data-name="Layer 1"><path class="cls-1" d="M1921.22,0V92.16c0,5.52-473,44.52-377,100.52s202,183,238,150,44-75,60-33,70.14,273.4-115.93,485.2-261.59,6.14-466.83-54-210.24-233.17-241.24-191.17-83,184-134,144-261-182-272-154-135,140-213,101c0,0-26,97-82,75s-338,95.16-316,154.08V761.68l517.64-235.1,53.36-71.9,308,172,101-139,308,219,274,103,252-388-357-164-6-128Z"/></g></g></svg>