<svg xmlns="http://www.w3.org/2000/svg" preserveAspectRatio="none" width="100%" height="40%"  viewBox="0 0 1933.65 966.17"><defs><style>.cls-1{fill:#17cc3a;stroke:red;stroke-miterlimit:10;stroke-width:20px;}</style></defs><g id="Layer_2" data-name="Layer 2"><g id="Layer_1-2" data-name="Layer 1"><path class="cls-1" d="M283.11,786.5c-58.92-39-284.18,168.28-276,76,6.16-69.45-3-850,0-855l1920-1v133c0,1.5-.31-8.53,0-10,4.87-23.16-490.1,87.85-453,171C1515.83,394,1797.87,516.88,1828,446.69s32.21,62.84,13.12,130.81c-20.56,73.2-136.84,371.45-285,382-95.76,6.82-472.36-198.92-504-298-21.18-66.3-90-63-157,91-19.63,45.12-367-236-309-158s-297,157-236,95S374.52,847.07,283.11,786.5Z"/></g></g></svg>