<svg aria-hidden="true" style="position: absolute; width: 0; height: 0; overflow: hidden;" version="1.1" xmlns="http://www.w3.org/2000/svg" xmlns:xlink="http://www.w3.org/1999/xlink">
<defs>
<symbol id="icon-appreciation" viewBox="0 0 512 512">
    <path d="m12.829 74.212c6.59 6.561 26.654 25.751 34.975 33.697 2.174 2.075 4.957 3.112 7.741 3.112 2.802 0 5.604-1.051 7.783-3.151 8.773-8.458 29.745-28.701 35.003-33.982 6.491-6.519 12.499-14.204 12.517-26.183.023-14.54-9.206-27.458-22.963-32.143-3.497-1.191-7.157-1.798-10.879-1.803-.018 0-.035 0-.052 0-7.939 0-15.513 2.737-21.578 7.756-6.149-5.042-13.87-7.756-21.846-7.66-9.871.109-19.164 4.52-25.497 12.101-6.498 7.782-9.244 18.032-7.533 28.124 1.342 7.906 5.536 13.368 12.329 20.132zm6.748-38.615c3.56-4.262 8.575-6.643 14.119-6.704.07-.001.141-.001.211-.001 4.82 0 9.397 1.81 12.911 5.11 4.836 4.543 12.367 4.538 17.143-.009 3.52-3.351 8.133-5.195 12.995-5.195h.029c2.077.003 4.114.34 6.053 1 7.652 2.606 12.785 9.793 12.772 17.883-.008 5.489-2.137 9.57-8.136 15.596-4.695 4.715-22.403 21.824-32.141 31.217-8.401-8.03-26.159-25.031-32.094-30.94-6.219-6.193-7.571-8.801-8.112-11.99-.974-5.747.575-11.567 4.25-15.967z"/><path d="m512 312.825c0-13.25-5.666-25.885-15.372-34.729 8.26-9.155 12.911-21.119 12.911-33.553 0-26.971-20.913-48.789-47.755-50.004-.325-.043-.656-.066-.992-.066l-117.266-.119c.339-2.487.681-4.951 1.017-7.377 1.622-11.703 3.155-22.757 4.191-34.121 2.315-25.378 2.423-54.985-14.327-82.152-17.845-28.944-46.881-39.701-77.672-28.777-3.11 1.103-12.572 4.46-11.189 17.197 2.085 19.213 4.418 41.913 5.912 64.6.36 5.455-.552 10.9-2.439 14.568-11.638 22.621-23.696 45.525-35.357 67.675-7.299 13.864-14.846 28.2-22.22 42.333-4.061 7.784-7.228 16.059-9.412 24.593-.562 2.197-2.552 3.731-4.838 3.731h-16.879v-3.978c0-7.463-6.072-13.535-13.535-13.535h-108.441c-21.139.001-38.337 17.199-38.337 38.337v22.404c0 4.153 3.367 7.52 7.52 7.52s7.52-3.367 7.52-7.52v-22.404c0-12.846 10.451-23.297 23.297-23.297h106.938v209.05h-106.938c-12.846 0-23.297-10.451-23.297-23.297v-104.961c0-4.153-3.367-7.52-7.52-7.52s-7.52 3.367-7.52 7.52v104.962c0 21.138 17.198 38.336 38.337 38.336h108.442c7.463 0 13.535-6.072 13.535-13.535v-6.663h199.833c4.153 0 7.52-3.367 7.52-7.52s-3.367-7.52-7.52-7.52h-199.833v-171.339h16.879c9.161 0 17.142-6.186 19.408-15.042 1.897-7.416 4.648-14.604 8.175-21.365 7.361-14.108 14.902-28.432 22.194-42.284 11.677-22.181 23.752-45.117 35.422-67.8 3.128-6.078 4.612-14.256 4.073-22.437-1.513-22.967-3.866-45.865-5.968-65.235-.04-.367-.055-.651-.059-.865.279-.134.701-.314 1.326-.536 24.328-8.632 45.577-.641 59.841 22.496 14.432 23.408 14.242 49.984 12.152 72.893-1.005 11.014-2.514 21.899-4.111 33.422-.72 5.193-1.464 10.563-2.165 15.989-.277 2.143.381 4.302 1.807 5.925 1.426 1.624 3.481 2.556 5.642 2.558l125.136.127c.161.015.324.025.488.03 19.034.579 33.945 15.953 33.945 35.001 0 9.929-4.242 19.432-11.638 26.072-2.38 2.136-3.648 5.193-3.479 8.385.168 3.185 1.747 6.083 4.331 7.951 8.294 5.995 13.245 15.667 13.245 25.874 0 12.048-6.675 22.943-17.42 28.433-2.551 1.303-4.477 3.632-5.287 6.391-.815 2.778-.447 5.805 1.009 8.304 2.826 4.848 4.319 10.39 4.319 16.026 0 15.404-10.98 28.6-26.108 31.377-3.198.587-5.897 2.573-7.406 5.449-1.514 2.886-1.614 6.25-.274 9.23 1.834 4.077 2.773 8.425 2.791 12.925.033 8.269-3.279 16.165-9.325 22.235-6.209 6.233-14.731 9.809-23.38 9.809h-22.19c-4.153 0-7.52 3.367-7.52 7.52s3.367 7.52 7.52 7.52h22.19c12.619 0 25.025-5.188 34.035-14.235 8.889-8.925 13.757-20.611 13.708-32.908-.019-4.812-.756-9.511-2.196-14.026 19.521-5.951 33.193-24.049 33.193-44.895 0-6.781-1.471-13.472-4.284-19.592 13.472-8.588 21.667-23.365 21.667-39.561z"/><path d="m131.96 428.476c0-14.835-12.069-26.904-26.904-26.904s-26.904 12.069-26.904 26.904 12.069 26.904 26.904 26.904 26.904-12.069 26.904-26.904zm-38.769 0c0-6.542 5.322-11.865 11.865-11.865s11.865 5.322 11.865 11.865c0 6.542-5.322 11.865-11.865 11.865s-11.865-5.323-11.865-11.865z"/><path d="m391.374 110.303c6.59 6.561 26.654 25.751 34.974 33.697 2.174 2.076 4.958 3.113 7.742 3.113 2.802 0 5.604-1.051 7.784-3.151 8.773-8.458 29.745-28.701 35.003-33.982 6.491-6.519 12.499-14.203 12.517-26.183.006-4.153-3.355-7.524-7.508-7.531-.004 0-.007 0-.011 0-4.148 0-7.513 3.359-7.52 7.508-.008 5.489-2.137 9.57-8.136 15.595-4.695 4.715-22.404 21.824-32.141 31.217-8.401-8.03-26.159-25.031-32.094-30.94-6.219-6.192-7.571-8.8-8.112-11.99-.975-5.748.574-11.568 4.249-15.967 3.56-4.262 8.575-6.643 14.12-6.704 4.925-.056 9.557 1.76 13.12 5.108 4.836 4.545 12.367 4.54 17.145-.008 3.519-3.351 8.133-5.195 12.994-5.195h.029c1.298.002 2.594.136 3.85.398 4.066.847 8.048-1.761 8.895-5.828.847-4.066-1.762-8.048-5.828-8.895-2.255-.47-4.574-.71-6.894-.714-7.944-.006-15.552 2.727-21.63 7.756-6.148-5.043-13.801-7.764-21.846-7.66-9.87.109-19.164 4.519-25.496 12.101-6.5 7.781-9.246 18.032-7.534 28.123 1.341 7.907 5.536 13.369 12.328 20.132z"/><path d="m104.331 155.803c1.341 7.907 5.536 13.37 12.328 20.133 6.59 6.561 26.654 25.751 34.974 33.697 2.174 2.076 4.958 3.113 7.742 3.113 2.802 0 5.604-1.051 7.784-3.151 8.773-8.459 29.746-28.702 35.002-33.981 6.491-6.519 12.5-14.203 12.518-26.183.023-14.54-9.206-27.458-22.963-32.143-3.498-1.191-7.158-1.798-10.879-1.804-.018 0-.035 0-.052 0-7.939 0-15.513 2.737-21.578 7.756-6.149-5.043-13.813-7.767-21.846-7.66-9.87.109-19.164 4.519-25.496 12.101-6.499 7.78-9.245 18.031-7.534 28.122zm19.077-18.482c3.56-4.262 8.575-6.643 14.12-6.704.071-.001.141-.001.212-.001 4.819 0 9.396 1.81 12.908 5.109 4.835 4.546 12.367 4.541 17.144-.007 3.52-3.351 8.134-5.195 12.995-5.195h.029c2.076.003 4.113.34 6.054 1.001 7.652 2.606 12.785 9.793 12.772 17.883-.008 5.489-2.137 9.57-8.136 15.595-4.694 4.714-22.403 21.824-32.14 31.217-8.401-8.03-26.159-25.031-32.094-30.94-6.219-6.192-7.571-8.8-8.112-11.99-.976-5.748.573-11.568 4.248-15.968z"/>

</symbol>
<symbol id="icon-conversation" x="0px" y="0px"
        viewBox="0 0 511.999 511.999" style="enable-background:new 0 0 511.999 511.999;" xml:space="preserve">
    <!-- Generator: Adobe Illustrator 19.0.0, SVG Export Plug-In . SVG Version: 6.00 Build 0)  -->
    <svg version="1.1" id="Capa_1" xmlns="http://www.w3.org/2000/svg" xmlns:xlink="http://www.w3.org/1999/xlink" x="0px" y="0px"
         viewBox="0 0 511.999 511.999" style="enable-background:new 0 0 511.999 511.999;" xml:space="preserve">
    <g>
        <g>
            <path d="M510.156,401.843L480.419,315.3c14.334-29.302,21.909-61.89,21.96-94.679c0.088-57.013-21.97-110.92-62.112-151.79
			C400.117,27.953,346.615,4.942,289.615,4.039C230.51,3.105,174.954,25.587,133.187,67.353
			c-40.274,40.273-62.612,93.366-63.319,150.102C30.174,247.341,6.745,293.936,6.822,343.705
			c0.037,23.29,5.279,46.441,15.212,67.376L1.551,470.689c-3.521,10.247-0.949,21.373,6.713,29.035
			c5.392,5.393,12.501,8.264,19.812,8.264c3.076,0,6.188-0.508,9.223-1.551l59.609-20.483c20.935,9.933,44.086,15.175,67.376,15.212
			c0.084,0,0.164,0,0.248,0c50.51-0.002,97.46-24.035,127.237-64.702c30.987-0.816,61.646-8.317,89.363-21.876l86.544,29.738
			c3.606,1.239,7.304,1.843,10.959,1.843c8.688,0,17.136-3.412,23.545-9.822C511.284,427.242,514.34,414.021,510.156,401.843z
			 M164.53,470.69c-0.065,0-0.134,0-0.199,0c-20.614-0.031-41.085-5.113-59.196-14.695c-3.724-1.969-8.096-2.31-12.078-0.942
			l-61.123,21.003l21.003-61.122c1.368-3.983,1.028-8.355-0.942-12.078c-9.582-18.112-14.664-38.582-14.696-59.197
			c-0.051-33.159,12.848-64.588,35.405-88.122c7.368,44.916,28.775,86.306,61.957,118.898
			c32.937,32.351,74.339,52.949,119.011,59.683C230.084,457.367,198.288,470.69,164.53,470.69z M480.628,414.797
			c-0.867,0.867-1.895,1.103-3.051,0.705l-92.648-31.836c-1.609-0.553-3.283-0.827-4.951-0.827c-2.459,0-4.909,0.595-7.126,1.769
			c-26.453,13.994-56.345,21.416-86.447,21.462c-0.099,0-0.189,0-0.288,0c-100.863,0-184.176-81.934-185.774-182.773
			c-0.805-50.785,18.513-98.514,54.394-134.395c35.881-35.881,83.618-55.192,134.396-54.392
			c100.936,1.601,182.926,85.068,182.77,186.063c-0.047,30.102-7.468,59.995-21.461,86.446c-1.97,3.723-2.31,8.095-0.942,12.078
			l31.835,92.648C481.732,412.905,481.494,413.932,480.628,414.797z"/>
        </g>
    </g>
    <g>
        <g>
            <path d="M376.892,139.512h-181.56c-8.416,0-15.238,6.823-15.238,15.238c0,8.416,6.823,15.238,15.238,15.238h181.56
			c8.416,0,15.238-6.823,15.238-15.238C392.13,146.335,385.308,139.512,376.892,139.512z"/>
        </g>
    </g>
    <g>
        <g>
            <path d="M376.892,202.183h-181.56c-8.416,0-15.238,6.823-15.238,15.238s6.823,15.238,15.238,15.238h181.56
			c8.416,0,15.238-6.823,15.238-15.238S385.308,202.183,376.892,202.183z"/>
        </g>
    </g>
    <g>
        <g>
            <path d="M307.004,264.852H195.331c-8.416,0-15.238,6.823-15.238,15.238c0,8.416,6.823,15.238,15.238,15.238h111.672
			c8.416,0,15.238-6.823,15.238-15.238C322.241,271.675,315.42,264.852,307.004,264.852z"/>
        </g>
    </g>
    <g>
    </g>
    <g>
    </g>
    <g>
    </g>
    <g>
    </g>
    <g>
    </g>
    <g>
    </g>
    <g>
    </g>
    <g>
    </g>
    <g>
    </g>
    <g>
    </g>
    <g>
    </g>
    <g>
    </g>
    <g>
    </g>
    <g>
    </g>
    <g>
    </g>
    </svg>
</symbol>

<symbol id="icon-post"  xmlns="http://www.w3.org/2000/svg" xmlns:xlink="http://www.w3.org/1999/xlink" x="0px" y="0px"
        viewBox="0 0 512 512" style="enable-background:new 0 0 512 512;" xml:space="preserve">
  <svg version="1.1" id="Capa_1" xmlns="http://www.w3.org/2000/svg" xmlns:xlink="http://www.w3.org/1999/xlink" x="0px" y="0px"
       viewBox="0 0 512 512" style="enable-background:new 0 0 512 512;" xml:space="preserve">
<g>
	<g>
		<path d="M502,125c5.522,0,10-4.477,10-10V10c0-5.523-4.478-10-10-10H10C4.478,0,0,4.477,0,10v492c0,5.522,4.478,10,10,10h470.25
			c17.507,0,31.75-14.243,31.75-31.75V202.379c0-1.52-0.347-3.019-1.013-4.384l-40-82c-1.676-3.436-5.164-5.616-8.987-5.616
			s-7.312,2.18-8.987,5.616l-40,82c-0.666,1.366-1.013,2.865-1.013,4.384V480.25c0,4.15,0.809,8.113,2.263,11.75H20V91.949
			C20.33,91.982,20.665,92,21.004,92H492v23C492,120.523,496.478,125,502,125z M462,143.188l23.996,49.191h-47.991L462,143.188z
			 M432,212.379h60v223.495h-24.333v-86.452c0-5.523-4.478-10-10-10c-5.522,0-10,4.478-10,10v86.452H432V212.379z M432,455.874h60
			v24.376c0,6.479-5.271,11.75-11.75,11.75h-36.5c-6.479,0-11.75-5.271-11.75-11.75V455.874z M21.004,72
			c-0.339,0-0.674,0.018-1.004,0.051V20h472v52H21.004z"/>
	</g>
</g>
      <g>
	<g>
		<path d="M448,36H222.065c-5.522,0-10,4.477-10,10s4.478,10,10,10H448c5.522,0,10-4.477,10-10S453.522,36,448,36z"/>
	</g>
</g>
      <g>
	<g>
		<path d="M111.069,38.93C109.21,37.07,106.63,36,104,36c-2.641,0-5.21,1.07-7.07,2.93C95.069,40.79,94,43.37,94,46
			s1.069,5.21,2.93,7.07C98.791,54.93,101.37,56,104,56s5.21-1.07,7.069-2.93C112.93,51.21,114,48.63,114,46
			S112.93,40.79,111.069,38.93z"/>
	</g>
</g>
      <g>
	<g>
		<path d="M71.069,38.93C69.21,37.07,66.63,36,64,36s-5.21,1.07-7.07,2.93C55.069,40.79,54,43.37,54,46s1.069,5.21,2.93,7.07
			C58.791,54.93,61.37,56,64,56s5.21-1.07,7.069-2.93C72.93,51.21,74,48.63,74,46S72.93,40.79,71.069,38.93z"/>
	</g>
</g>
      <g>
	<g>
		<path d="M151.069,38.93C149.21,37.07,146.63,36,144,36s-5.21,1.07-7.07,2.93S134,43.37,134,46s1.069,5.21,2.93,7.07
			c1.861,1.86,4.44,2.93,7.07,2.93s5.21-1.07,7.069-2.93C152.93,51.21,154,48.63,154,46S152.93,40.79,151.069,38.93z"/>
	</g>
</g>
      <g>
	<g>
		<path d="M204,120H64c-5.522,0-10,4.477-10,10v144c0,5.522,4.478,10,10,10h140c5.522,0,10-4.478,10-10V130
			C214,124.477,209.522,120,204,120z M194,264H74V140h120V264z"/>
	</g>
</g>
      <g>
	<g>
		<path d="M457.667,308.34c-5.522,0-10,4.478-10,10v0.12c0,5.522,4.478,10,10,10c5.522,0,10-4.478,10-10v-0.12
			C467.667,312.818,463.189,308.34,457.667,308.34z"/>
	</g>
</g>
      <g>
	<g>
		<path d="M379.291,120H251c-5.522,0-10,4.477-10,10s4.478,10,10,10h128.291c5.522,0,10-4.477,10-10S384.813,120,379.291,120z"/>
	</g>
</g>
      <g>
	<g>
		<path d="M379.291,168H251c-5.522,0-10,4.477-10,10s4.478,10,10,10h128.291c5.522,0,10-4.477,10-10S384.813,168,379.291,168z"/>
	</g>
</g>
      <g>
	<g>
		<path d="M379.291,216H251c-5.522,0-10,4.477-10,10s4.478,10,10,10h128.291c5.522,0,10-4.477,10-10S384.813,216,379.291,216z"/>
	</g>
</g>
      <g>
	<g>
		<path d="M300.226,264H251c-5.522,0-10,4.478-10,10c0,5.522,4.478,10,10,10h49.226c5.522,0,10-4.478,10-10
			C310.226,268.478,305.748,264,300.226,264z"/>
	</g>
</g>
      <g>
	<g>
		<path d="M379.291,332h-120.79c-5.522,0-10,4.478-10,10c0,5.522,4.478,10,10,10h120.79c5.522,0,10-4.478,10-10
			C389.291,336.478,384.813,332,379.291,332z"/>
	</g>
</g>
      <g>
	<g>
		<path d="M203.998,332h-92.946c-5.522,0-10,4.478-10,10c0,5.522,4.478,10,10,10h92.946c5.522,0,10-4.478,10-10
			C213.998,336.478,209.521,332,203.998,332z"/>
	</g>
</g>
      <g>
	<g>
		<path d="M71.069,334.93C69.21,333.069,66.63,332,64,332s-5.21,1.069-7.07,2.93C55.07,336.791,54,339.37,54,342
			s1.069,5.21,2.93,7.069C58.79,350.93,61.37,352,64,352s5.21-1.07,7.069-2.931C72.93,347.21,74,344.63,74,342
			S72.93,336.79,71.069,334.93z"/>
	</g>
</g>
      <g>
	<g>
		<path d="M379.291,380h-120.79c-5.522,0-10,4.478-10,10c0,5.522,4.478,10,10,10h120.79c5.522,0,10-4.478,10-10
			C389.291,384.478,384.813,380,379.291,380z"/>
	</g>
</g>
      <g>
	<g>
		<path d="M203.998,380H64c-5.522,0-10,4.478-10,10c0,5.522,4.478,10,10,10h139.998c5.522,0,10-4.478,10-10
			C213.998,384.478,209.521,380,203.998,380z"/>
	</g>
</g>
      <g>
	<g>
		<path d="M379.291,428h-120.79c-5.522,0-10,4.478-10,10c0,5.522,4.478,10,10,10h120.79c5.522,0,10-4.478,10-10
			C389.291,432.478,384.813,428,379.291,428z"/>
	</g>
</g>
      <g>
	<g>
		<path d="M203.998,428H64c-5.522,0-10,4.478-10,10c0,5.522,4.478,10,10,10h139.998c5.522,0,10-4.478,10-10
			C213.998,432.478,209.521,428,203.998,428z"/>
	</g>
</g>
      <g>
	<g>
		<path d="M172.202,232.443l-28.989-68.667c-1.563-3.704-5.193-6.111-9.213-6.111s-7.649,2.407-9.213,6.111l-28.989,68.667
			c-2.148,5.089,0.235,10.955,5.323,13.103c5.091,2.146,10.954-0.236,13.103-5.324l3.626-8.59h32.3l3.626,8.59
			c1.612,3.819,5.317,6.113,9.217,6.113c1.297,0,2.616-0.254,3.886-0.79C171.967,243.397,174.35,237.531,172.202,232.443z
			 M126.294,211.632L134,193.378l7.707,18.254H126.294z"/>
	</g>
</g>
      <g>
</g>
      <g>
</g>
      <g>
</g>
      <g>
</g>
      <g>
</g>
      <g>
</g>
      <g>
</g>
      <g>
</g>
      <g>
</g>
      <g>
</g>
      <g>
</g>
      <g>
</g>
      <g>
</g>
      <g>
</g>
      <g>
</g>
</svg>

</symbol>

<symbol id="icon-share"  xmlns="http://www.w3.org/2000/svg" xmlns:xlink="http://www.w3.org/1999/xlink" x="0px" y="0px"
        viewBox="0 0 512 512" style="enable-background:new 0 0 512 512;" xml:space="preserve">
  <svg version="1.1" id="Capa_1" xmlns="http://www.w3.org/2000/svg" xmlns:xlink="http://www.w3.org/1999/xlink" x="0px" y="0px"
       viewBox="0 0 512 512" style="enable-background:new 0 0 512 512;" xml:space="preserve">
<g>
	<g>
		<g>
			<path d="M508.271,194.568l-149.333-128c-3.146-2.708-7.583-3.323-11.396-1.594c-3.781,1.74-6.208,5.521-6.208,9.688v74.813
				c-119.188,3.313-176.688,62.312-204.021,112.031c-23.771,43.219-29.104,86.01-30.302,103.573
				c-0.229,2.688-0.344,5.427-0.344,8.219v0.031c0,0,0,0.01,0,0.021v0.01c0,0.01,0,0.01,0,0.01v0.031v0.01c0,0,0,0.01,0,0.021v0.01
				c0,0.01,0,0.021,0,0.021c0,0.01,0,0.01,0,0.01v0.031c0,0.01,0,0.021,0,0.031c0,0,0,0.01,0,0.031v0.01v0.021v0.01
				c0,0.01,0,0.021,0,0.031l0.01,0.031c0,0,0,0,0,0.01c0,0.021,0,0.031,0,0.031c0,0.01,0,0.021,0,0.031v0.031v0.031v0.01v0.031
				c0,0.01,0,0.021,0,0.031c0,0,0,0.021,0.01,0.031c0,0,0,0.01,0,0.031v0.01c0,0.01,0,0.021,0,0.031v0.031c0,0.01,0,0.021,0,0.031
				c-0.01,0.031,0.021,0.042,0.01,0.042v0.031c0,0.01,0,0.021,0,0.031v0.031c0,0.021,0.01,0.042,0.01,0.042v0.031
				c0,0.01,0,0.021,0,0.031v0.01v0.021v0.01l0.01,0.021v0.01c0,0.01,0,0.021,0,0.021c0,0.01,0,0.01,0,0.01v0.031v0.01
				c0.01,0.01,0.01,0.01,0.01,0.021c0,0,0,0.01,0,0.021v0.01c0,0.01,0,0.01,0,0.01v0.021c0.01,0.031,0.01,0.031,0.01,0.031
				c0,0.01,0,0.021,0,0.031v0.01v0.021v0.01c0.01,0.01,0.01,0.021,0.01,0.021c0,0.021,0,0.031,0,0.031
				c0.667,5.26,5.156,9.323,10.583,9.323c5.885,0,10.656-4.76,10.667-10.646v-0.01c0-0.542,0.01-1.865,0.104-3.885
				c4.656-88.698,168.521-108.823,213.229-112.667v73.875c0,4.167,2.427,7.948,6.208,9.688c3.802,1.729,8.229,1.125,11.396-1.594
				l149.333-128c2.365-2.021,3.729-4.979,3.729-8.094C512,199.547,510.635,196.589,508.271,194.568z M362.667,307.474v-62.146
				c0-2.917-1.188-5.698-3.302-7.708c-1.979-1.906-4.625-2.958-7.365-2.958c-0.156,0-0.323,0-0.49,0.01
				c-7.51,0.344-142.177,7.281-208.521,64.323c21.948-57.885,75.969-128.333,208.958-128.333H352c2.833,0,5.542-1.125,7.542-3.125
				s3.125-4.708,3.125-7.542V97.849l122.281,104.812L362.667,307.474z"/>
            <path d="M437.333,303.047c-5.896,0-10.667,4.771-10.667,10.667v91.615c0,11.76-9.573,21.333-21.333,21.333H42.667
				c-11.76,0-21.333-9.573-21.333-21.333V191.995c0-11.76,9.573-21.333,21.333-21.333h147.729c5.896,0,10.667-4.771,10.667-10.667
				s-4.771-10.667-10.667-10.667H42.667C19.135,149.329,0,168.464,0,191.995v213.333c0,23.531,19.135,42.667,42.667,42.667h362.667
				c23.531,0,42.667-19.135,42.667-42.667v-91.615C448,307.818,443.229,303.047,437.333,303.047z"/>
		</g>
	</g>
</g>
      <g>
</g>
      <g>
</g>
      <g>
</g>
      <g>
</g>
      <g>
</g>
      <g>
</g>
      <g>
</g>
      <g>
</g>
      <g>
</g>
      <g>
</g>
      <g>
</g>
      <g>
</g>
      <g>
</g>
      <g>
</g>
      <g>
</g>
</svg>
</symbol>
<symbol id="icon-background"  xmlns="http://www.w3.org/2000/svg" xmlns:xlink="http://www.w3.org/1999/xlink" viewBox="0 0 1933.65 966.17">
  <svg xmlns="http://www.w3.org/2000/svg"  preserveAspectRatio="none" width="100%" height="40%"  viewBox="0 0 1933.65 966.17">
    <defs><style>.cls-1{fill:#d89c9c;opacity:0.39;}</style></defs>
      <g id="Layer_2" data-name="Layer 2">
        <g id="Layer_1-2" data-name="Layer 1">
            <path class="cls-1" d="M1921.22,80.32v92.16c0,5.52-473,44.52-377,100.52s202,183,238,150,44-75,60-33,70.14,273.4-115.93,485.2-261.59,6.14-466.83-54S1049.22,588,1018.22,630s-83,184-134,144-261-182-272-154-135,140-213,101c0,0-26,97-82,75s-338,95.16-316,154.08V1l1920-1Z"/>
        </g>
    </g>
</svg>
</symbol>

<symbol id="icon-image"  xmlns="http://www.w3.org/2000/svg" xmlns:xlink="http://www.w3.org/1999/xlink" viewBox="0 0 64 64">
    <svg  viewBox="0 0 64 64"  xmlns="http://www.w3.org/2000/svg">
        <g id="Image-Computer-Photo-Screen-Monitor">
            <path d="m55 57v3a1 1 0 0 1 -1 1h-44a1 1 0 0 1 -1-1v-3z" fill="#8c43e6"/>
            <path d="m54 31v4a2.006 2.006 0 0 1 -2 2h-40a2.006 2.006 0 0 1 -2-2v-4z" fill="#8c43e6"/>
            <path d="m46 3h-28a1 1 0 0 0 -1 1v18l2.71-2.71 4.29-4.29 4.29 4.29 1.21 1.21 4-4 4.5-4.5 4.5 4.5 4.5 4.5v-17a1 1 0 0 0 -1-1zm-14 6a2 2 0 1 1 -2-2 2.006 2.006 0 0 1 2 2z" fill="#8c43e6"/>
            <path d="m42 43v4h-20v-4h5 10z" fill="#8c43e6"/>
            <path d="m27 37h10v6h-10z" fill="#8c43e6"/>
            <path d="m42.5 16.5-2.5 2.5-2-2-2 2-2.5-2.5-4 4-.5.5-4 4h21a1 1 0 0 0 1-1v-3z" fill="#8c43e6"/>
            <path d="m29.5 20.5-.5.5-4 4h-7a1 1 0 0 1 -1-1v-2l2.71-2.71 2.29 1.71 2-2 2 2 2.29-1.71z" fill="#8c43e6"/>
            <g fill="#793bc6">
                <path d="m55.707 56.293-6-6a1 1 0 0 0 -.707-.293h-30v-2a3 3 0 0 0 -3-3h-6a1 1 0 0 1 0-2h6a3 3 0 0 0 3-3v-2h7v4h-4a1 1 0 0 0 -1 1v4a1 1 0 0 0 1 1h20a1 1 0 0 0 1-1v-4a1 1 0 0 0 -1-1h-4v-4h14a3 3 0 0 0 3-3v-26a3 3 0 0 0 -3-3h-2v2h2a1 1 0 0 1 1 1v21h-42v-21a1 1 0 0 1 1-1h2v-2h-2a3 3 0 0 0 -3 3v26a3 3 0 0 0 3 3h5v2a1 1 0 0 1 -1 1h-6a3 3 0 0 0 0 6h6a1 1 0 0 1 1 1v2h-2a1 1 0 0 0 -.707.293l-6 6a1 1 0 0 0 -.293.707v3a2 2 0 0 0 2 2h44a2 2 0 0 0 2-2v-3a1 1 0 0 0 -.293-.707zm-14.707-10.293h-18v-2h18zm-5-4h-8v-4h8zm-25-7v-3h42v3a1 1 0 0 1 -1 1h-40a1 1 0 0 1 -1-1zm4.414 17h33.172l4 4h-41.172zm-5.414 8v-2h44v2z"/><path d="m16 53h2v2h-2z"/><path d="m20 53h2v2h-2z"/><path d="m42 53h2v2h-2z"/><path d="m24 53h16v2h-16z"/><path d="m46 53h2v2h-2z"/><path d="m47 33h2v2h-2z"/><path d="m18 26h28a2 2 0 0 0 2-2v-20a2 2 0 0 0 -2-2h-28a2 2 0 0 0 -2 2v20a2 2 0 0 0 2 2zm0-3.586 1.8-1.8 1.6 1.186a1 1 0 0 0 1.306-.095l1.294-1.291 1.293 1.293a1 1 0 0 0 1.307.093l.732-.547-2.746 2.747h-6.586zm3.234-3.234 2.766-2.766 2.766 2.766-.671.5-1.388-1.388a1 1 0 0 0 -1.414 0l-1.388 1.388zm6.18 4.82 6.086-6.086 1.793 1.793a1 1 0 0 0 1.414 0l1.293-1.293 1.293 1.293a1 1 0 0 0 1.414 0l1.793-1.793 3.5 3.5v2.586zm7.5-7.5 3.086-3.086 3.086 3.086-1.086 1.086-1.293-1.293a1 1 0 0 0 -1.414 0l-1.293 1.293zm11.086-12.5v14.587l-7.294-7.294a1 1 0 0 0 -1.414 0l-7.792 7.793-4.793-4.793a1 1 0 0 0 -1.414 0l-5.293 5.293v-15.586z"/><path d="m30 12a3 3 0 1 0 -3-3 3 3 0 0 0 3 3zm0-4a1 1 0 1 1 -1 1 1 1 0 0 1 1-1z"/>
                <path d="m20 10h6v2h-6z"/>
                <path d="m34 10h2v2h-2z"/>
            </g></g></svg>
</symbol>

<symbol id="icon-video"  xmlns="http://www.w3.org/2000/svg" xmlns:xlink="http://www.w3.org/1999/xlink" viewBox="0 0 64 64">
    <svg  preserveAspectRatio="none" viewBox="0 0 64 64"  xmlns="http://www.w3.org/2000/svg">
        <path d="m6 54h50v-33h-4v-4h-4v4h-6v-4h2l-4-4-4 4h2v4h-2a7 7 0 0 1 -3.6-13h-26.4zm26-30a12.9 12.9 0 0 1 3 .35h3v.65h3v2.62a13 13 0 1 1 -9-3.62z" fill="#8c43e6"/>
        <path d="m28 28v18l14-9z" fill="#8c43e6"/>
        <g fill="#5e2c99">
            <path d="m62 17.5a4.5 4.5 0 0 0 -2-3.738v-8.762a1 1 0 0 0 -1-1h-5.355a8.975 8.975 0 0 0 -11.3 0h-39.345a1 1 0 0 0 -1 1v56a1 1 0 0 0 1 1h56a1 1 0 0 0 1-1v-39.762a4.5 4.5 0 0 0 2-3.738zm-4-4.449a4.342 4.342 0 0 0 -.5-.051h-.5v-5a.994.994 0 0 0 -.944-.989 9.076 9.076 0 0 0 -.578-1.011h2.522zm0 46.949h-54v-54h36.52a9.22 9.22 0 0 0 -.578 1h-.08a7.961 7.961 0 0 0 -7.726 0h-26.136a1 1 0 0 0 -1 1v46a1 1 0 0 0 1 1h50a1 1 0 0 0 1-1v-32h.5a4.342 4.342 0 0 0 .5-.051zm-20-34h4a1 1 0 0 0 1-1v-3h4v2h-1a1 1 0 0 0 -.707 1.707l4 4a1 1 0 0 0 1.414 0l4-4a1 1 0 0 0 -.707-1.707h-1v-2h2v31h-48v-44h22.765a7.991 7.991 0 0 0 6.235 13h1v3a1 1 0 0 0 1 1zm.351-9.937 1.649-1.649 1.649 1.649a1 1 0 0 0 -.649.937v7h-2v-7a1 1 0 0 0 -.649-.937zm13.3 9.874-1.651 1.649-1.649-1.649a1 1 0 0 0 .649-.937v-7h2v7a1 1 0 0 0 .649.937zm5.849-5.937h-4.5v-3a1 1 0 0 0 -1-1h-4a1 1 0 0 0 -1 1v3h-4v-2h1a1 1 0 0 0 .707-1.707l-4-4a1 1 0 0 0 -1.414 0l-4 4a1 1 0 0 0 .707 1.707h1v2h-1a6 6 0 1 1 3.761-10.673 1 1 0 0 0 1.581-.473 7 7 0 1 1 13.142 4.768 1 1 0 0 0 .926 1.378h2.09a2.5 2.5 0 0 1 0 5z"/><path d="m27.521 27.122a1 1 0 0 0 -.521.878v18a1 1 0 0 0 1.541.841l14-9a1 1 0 0 0 0-1.682l-14-9a1 1 0 0 0 -1.02-.037zm1.479 2.71 11.15 7.168-11.15 7.168z"/>
            <path d="m32 49a12 12 0 1 1 2.771-23.679l.458-1.947a14 14 0 1 0 10.771 13.626 13.883 13.883 0 0 0 -4.308-10.1l-1.384 1.444a12 12 0 0 1 -8.308 20.656z"/></g></svg>

</symbol>

<symbol id="icon-plus"  xmlns="http://www.w3.org/2000/svg" xmlns:xlink="http://www.w3.org/1999/xlink"  viewBox="0 0 341.4 341.4">
    <svg version="1.1" id="Capa_1" xmlns="http://www.w3.org/2000/svg" xmlns:xlink="http://www.w3.org/1999/xlink" x="0px" y="0px"
        preserveAspectRatio="none" viewBox="0 0 341.4 341.4" style="enable-background:new 0 0 341.4 341.4; fill:#793bc6;" xml:space="preserve">
<g>
	<g>
		<polygon points="192,149.4 192,0 149.4,0 149.4,149.4 0,149.4 0,192 149.4,192 149.4,341.4 192,341.4 192,192 341.4,192
			341.4,149.4"/>
	</g>
</g>
        <g>
</g>
        <g>
</g>
        <g>
</g>
        <g>
</g>
        <g>
</g>
        <g>
</g>
        <g>
</g>
        <g>
</g>
        <g>
</g>
        <g>
</g>
        <g>
</g>
        <g>
</g>
        <g>
</g>
        <g>
</g>
        <g>
</g>
</svg>

</symbol>

<symbol id="icon-delete"  xmlns="http://www.w3.org/2000/svg" xmlns:xlink="http://www.w3.org/1999/xlink"  viewBox="0 0 512 512" >
    <svg id="Layer_1"  style="fill:#793bc6;"  viewBox="0 0 512 512" xmlns="http://www.w3.org/2000/svg"><g><path d="m424 64h-88v-16c0-26.51-21.49-48-48-48h-64c-26.51 0-48 21.49-48 48v16h-88c-22.091 0-40 17.909-40 40v32c0 8.837 7.163 16 16 16h384c8.837 0 16-7.163 16-16v-32c0-22.091-17.909-40-40-40zm-216-16c0-8.82 7.18-16 16-16h64c8.82 0 16 7.18 16 16v16h-96z"/><path d="m78.364 184c-2.855 0-5.13 2.386-4.994 5.238l13.2 277.042c1.22 25.64 22.28 45.72 47.94 45.72h242.98c25.66 0 46.72-20.08 47.94-45.72l13.2-277.042c.136-2.852-2.139-5.238-4.994-5.238zm241.636 40c0-8.84 7.16-16 16-16s16 7.16 16 16v208c0 8.84-7.16 16-16 16s-16-7.16-16-16zm-80 0c0-8.84 7.16-16 16-16s16 7.16 16 16v208c0 8.84-7.16 16-16 16s-16-7.16-16-16zm-80 0c0-8.84 7.16-16 16-16s16 7.16 16 16v208c0 8.84-7.16 16-16 16s-16-7.16-16-16z"/></g></svg>
</symbol>


    <symbol id="icon-search"  xmlns="http://www.w3.org/2000/svg" xmlns:xlink="http://www.w3.org/1999/xlink" viewBox="0 0 512 512" >

        <svg version="1.1" id="Capa_1" xmlns="http://www.w3.org/2000/svg" xmlns:xlink="http://www.w3.org/1999/xlink" x="0px" y="0px"
             viewBox="0 0 512 512" preserveAspectRatio="none" style="fill:#793bc6;enable-background:new 0 0 512 512;" xml:space="preserve">
<g>
	<g>
		<path d="M310,190c-5.52,0-10,4.48-10,10s4.48,10,10,10c5.52,0,10-4.48,10-10S315.52,190,310,190z"/>
	</g>
</g>
            <g>
	<g>
		<path d="M500.281,443.719l-133.48-133.48C388.546,277.485,400,239.555,400,200C400,89.72,310.28,0,200,0S0,89.72,0,200
			s89.72,200,200,200c39.556,0,77.486-11.455,110.239-33.198l36.895,36.895c0.005,0.005,0.01,0.01,0.016,0.016l96.568,96.568
			C451.276,507.838,461.319,512,472,512c10.681,0,20.724-4.162,28.278-11.716C507.837,492.731,512,482.687,512,472
			S507.837,451.269,500.281,443.719z M305.536,345.727c0,0.001-0.001,0.001-0.002,0.002C274.667,368.149,238.175,380,200,380
			c-99.252,0-180-80.748-180-180S100.748,20,200,20s180,80.748,180,180c0,38.175-11.851,74.667-34.272,105.535
			C334.511,320.988,320.989,334.511,305.536,345.727z M326.516,354.793c10.35-8.467,19.811-17.928,28.277-28.277l28.371,28.371
			c-8.628,10.183-18.094,19.65-28.277,28.277L326.516,354.793z M486.139,486.139c-3.78,3.78-8.801,5.861-14.139,5.861
			s-10.359-2.081-14.139-5.861l-88.795-88.795c10.127-8.691,19.587-18.15,28.277-28.277l88.798,88.798
			C489.919,461.639,492,466.658,492,472C492,477.342,489.919,482.361,486.139,486.139z"/>
	</g>
</g>
            <g>
	<g>
		<path d="M200,40c-88.225,0-160,71.775-160,160s71.775,160,160,160s160-71.775,160-160S288.225,40,200,40z M200,340
			c-77.196,0-140-62.804-140-140S122.804,60,200,60s140,62.804,140,140S277.196,340,200,340z"/>
	</g>
</g>
            <g>
	<g>
		<path d="M312.065,157.073c-8.611-22.412-23.604-41.574-43.36-55.413C248.479,87.49,224.721,80,200,80c-5.522,0-10,4.478-10,10
			c0,5.522,4.478,10,10,10c41.099,0,78.631,25.818,93.396,64.247c1.528,3.976,5.317,6.416,9.337,6.416
			c1.192,0,2.405-0.215,3.584-0.668C311.472,168.014,314.046,162.229,312.065,157.073z"/>
	</g>
</g>
            <g>
</g>
            <g>
</g>
            <g>
</g>
            <g>
</g>
            <g>
</g>
            <g>
</g>
            <g>
</g>
            <g>
</g>
            <g>
</g>
            <g>
</g>
            <g>
</g>
            <g>
</g>
            <g>
</g>
            <g>
</g>
            <g>
</g>
</svg>

    </symbol>



    <symbol id="icon-like"  xmlns="http://www.w3.org/2000/svg" preserveAspectRatio="none"  xmlns:xlink="http://www.w3.org/1999/xlink" viewBox="0 0 512 512" >

    <svg version="1.1" id="Capa_1" xmlns="http://www.w3.org/2000/svg" xmlns:xlink="http://www.w3.org/1999/xlink" x="0px" y="0px"
         preserveAspectRatio="none" viewBox="0 0 512 512" style="fill:#793bc6;enable-background:new 0 0 512 512;" xml:space="preserve">
<g>
	<g>
		<path d="M512,304c0-12.821-5.099-24.768-13.888-33.579c9.963-10.901,15.04-25.515,13.653-40.725
			c-2.496-27.115-26.923-48.363-55.637-48.363H324.352c6.528-19.819,16.981-56.149,16.981-85.333c0-46.272-39.317-85.333-64-85.333
			c-22.144,0-37.995,12.48-38.656,12.992c-2.539,2.027-4.011,5.099-4.011,8.341v72.341L173.205,237.44l-2.539,1.301v-4.075
			c0-5.888-4.779-10.667-10.667-10.667H53.333C23.915,224,0,247.915,0,277.333V448c0,29.419,23.915,53.333,53.333,53.333h64
			c23.061,0,42.773-14.72,50.197-35.264C185.28,475.2,209.173,480,224,480h195.819c23.232,0,43.563-15.659,48.341-37.248
			c2.453-11.136,1.024-22.336-3.84-32.064c15.744-7.915,26.347-24.192,26.347-42.688c0-7.552-1.728-14.784-4.992-21.312
			C501.419,338.752,512,322.496,512,304z M467.008,330.325c-4.117,0.491-7.595,3.285-8.917,7.232
			c-1.301,3.947-0.213,8.277,2.816,11.136c5.419,5.099,8.427,11.968,8.427,19.307c0,13.461-10.176,24.768-23.637,26.325
			c-4.117,0.491-7.595,3.285-8.917,7.232c-1.301,3.947-0.213,8.277,2.816,11.136c7.019,6.613,9.835,15.893,7.723,25.451
			c-2.624,11.904-14.187,20.523-27.499,20.523H224c-17.323,0-46.379-8.128-56.448-18.219c-3.051-3.029-7.659-3.925-11.627-2.304
			c-3.989,1.643-6.592,5.547-6.592,9.856c0,17.643-14.357,32-32,32h-64c-17.643,0-32-14.357-32-32V277.333c0-17.643,14.357-32,32-32
			h96V256c0,3.691,1.92,7.125,5.077,9.088c3.115,1.877,7.04,2.069,10.368,0.448l21.333-10.667c2.155-1.067,3.883-2.859,4.907-5.056
			l64-138.667c0.64-1.408,0.981-2.944,0.981-4.48V37.781C260.437,35.328,268.139,32,277.333,32C289.024,32,320,61.056,320,96
			c0,37.547-20.437,91.669-20.629,92.203c-1.237,3.264-0.811,6.955,1.173,9.856c2.005,2.88,5.291,4.608,8.789,4.608h146.795
			c17.792,0,32.896,12.736,34.389,28.992c1.131,12.16-4.715,23.723-15.189,30.187c-3.264,2.005-5.205,5.632-5.056,9.493
			s2.368,7.317,5.781,9.088c9.024,4.587,14.613,13.632,14.613,23.573C490.667,317.461,480.491,328.768,467.008,330.325z"/>
	</g>
</g>
        <g>
	<g>
		<path d="M160,245.333c-5.888,0-10.667,4.779-10.667,10.667v192c0,5.888,4.779,10.667,10.667,10.667s10.667-4.779,10.667-10.667
			V256C170.667,250.112,165.888,245.333,160,245.333z"/>
	</g>
</g>
        <g>
</g>
        <g>
</g>
        <g>
</g>
        <g>
</g>
        <g>
</g>
        <g>
</g>
        <g>
</g>
        <g>
</g>
        <g>
</g>
        <g>
</g>
        <g>
</g>
        <g>
</g>
        <g>
</g>
        <g>
</g>
        <g>
</g>
</svg>
</symbol>

<symbol id="icon-comment"  xmlns="http://www.w3.org/2000/svg" preserveAspectRatio="none"  xmlns:xlink="http://www.w3.org/1999/xlink" viewBox="0 0 682.66669 682" >


    <svg style="fill:#793bc6;" viewBox="0 0 682.66669 682" xmlns="http://www.w3.org/2000/svg"><path d="m552.011719-1.332031h-464.023438c-48.515625 0-87.988281 39.464843-87.988281 87.988281v283.972656c0 48.414063 39.300781 87.816406 87.675781 87.988282v128.863281l185.191407-128.863281h279.144531c48.515625 0 87.988281-39.472657 87.988281-87.988282v-283.972656c0-48.523438-39.472656-87.988281-87.988281-87.988281zm50.488281 371.960937c0 27.835938-22.648438 50.488282-50.488281 50.488282h-290.910157l-135.925781 94.585937v-94.585937h-37.1875c-27.839843 0-50.488281-22.652344-50.488281-50.488282v-283.972656c0-27.84375 22.648438-50.488281 50.488281-50.488281h464.023438c27.839843 0 50.488281 22.644531 50.488281 50.488281zm0 0"/><path d="m171.292969 131.171875h297.414062v37.5h-297.414062zm0 0"/><path d="m171.292969 211.171875h297.414062v37.5h-297.414062zm0 0"/><path d="m171.292969 291.171875h297.414062v37.5h-297.414062zm0 0"/></svg>


</symbol>


    <symbol id="icon-share"   preserveAspectRatio="none" viewBox="0 0 512 512"  xmlns="http://www.w3.org/2000/svg"  xmlns:xlink="http://www.w3.org/1999/xlink"  >
        <svg version="1.1" id="Capa_1" xmlns="http://www.w3.org/2000/svg" xmlns:xlink="http://www.w3.org/1999/xlink" x="0px" y="0px"
             preserveAspectRatio="none" viewBox="0 0 512 512" style="fill:#793bc6;" xml:space="preserve">
<g>
	<g>
		<g>
			<path d="M508.271,194.568l-149.333-128c-3.146-2.708-7.583-3.323-11.396-1.594c-3.781,1.74-6.208,5.521-6.208,9.688v74.813
				c-119.188,3.313-176.688,62.312-204.021,112.031c-23.771,43.219-29.104,86.01-30.302,103.573
				c-0.229,2.688-0.344,5.427-0.344,8.219v0.031c0,0,0,0.01,0,0.021v0.01c0,0.01,0,0.01,0,0.01v0.031v0.01c0,0,0,0.01,0,0.021v0.01
				c0,0.01,0,0.021,0,0.021c0,0.01,0,0.01,0,0.01v0.031c0,0.01,0,0.021,0,0.031c0,0,0,0.01,0,0.031v0.01v0.021v0.01
				c0,0.01,0,0.021,0,0.031l0.01,0.031c0,0,0,0,0,0.01c0,0.021,0,0.031,0,0.031c0,0.01,0,0.021,0,0.031v0.031v0.031v0.01v0.031
				c0,0.01,0,0.021,0,0.031c0,0,0,0.021,0.01,0.031c0,0,0,0.01,0,0.031v0.01c0,0.01,0,0.021,0,0.031v0.031c0,0.01,0,0.021,0,0.031
				c-0.01,0.031,0.021,0.042,0.01,0.042v0.031c0,0.01,0,0.021,0,0.031v0.031c0,0.021,0.01,0.042,0.01,0.042v0.031
				c0,0.01,0,0.021,0,0.031v0.01v0.021v0.01l0.01,0.021v0.01c0,0.01,0,0.021,0,0.021c0,0.01,0,0.01,0,0.01v0.031v0.01
				c0.01,0.01,0.01,0.01,0.01,0.021c0,0,0,0.01,0,0.021v0.01c0,0.01,0,0.01,0,0.01v0.021c0.01,0.031,0.01,0.031,0.01,0.031
				c0,0.01,0,0.021,0,0.031v0.01v0.021v0.01c0.01,0.01,0.01,0.021,0.01,0.021c0,0.021,0,0.031,0,0.031
				c0.667,5.26,5.156,9.323,10.583,9.323c5.885,0,10.656-4.76,10.667-10.646v-0.01c0-0.542,0.01-1.865,0.104-3.885
				c4.656-88.698,168.521-108.823,213.229-112.667v73.875c0,4.167,2.427,7.948,6.208,9.688c3.802,1.729,8.229,1.125,11.396-1.594
				l149.333-128c2.365-2.021,3.729-4.979,3.729-8.094C512,199.547,510.635,196.589,508.271,194.568z M362.667,307.474v-62.146
				c0-2.917-1.188-5.698-3.302-7.708c-1.979-1.906-4.625-2.958-7.365-2.958c-0.156,0-0.323,0-0.49,0.01
				c-7.51,0.344-142.177,7.281-208.521,64.323c21.948-57.885,75.969-128.333,208.958-128.333H352c2.833,0,5.542-1.125,7.542-3.125
				s3.125-4.708,3.125-7.542V97.849l122.281,104.812L362.667,307.474z"/>
            <path d="M437.333,303.047c-5.896,0-10.667,4.771-10.667,10.667v91.615c0,11.76-9.573,21.333-21.333,21.333H42.667
				c-11.76,0-21.333-9.573-21.333-21.333V191.995c0-11.76,9.573-21.333,21.333-21.333h147.729c5.896,0,10.667-4.771,10.667-10.667
				s-4.771-10.667-10.667-10.667H42.667C19.135,149.329,0,168.464,0,191.995v213.333c0,23.531,19.135,42.667,42.667,42.667h362.667
				c23.531,0,42.667-19.135,42.667-42.667v-91.615C448,307.818,443.229,303.047,437.333,303.047z"/>
		</g>
	</g>
</g>
            <g>
</g>
            <g>
</g>
            <g>
</g>
            <g>
</g>
            <g>
</g>
            <g>
</g>
            <g>
</g>
            <g>
</g>
            <g>
</g>
            <g>
</g>
            <g>
</g>
            <g>
</g>
            <g>
</g>
            <g>
</g>
            <g>
</g>
</svg>
    </symbol>


<!--house-->
 <symbol id="icon-house"   xmlns="http://www.w3.org/2000/svg"  viewBox="0 0 460.298 460.297"  preserveAspectRatio="none"  xmlns:xlink="http://www.w3.org/1999/xlink">
     <svg version="1.1" id="Capa_1" xmlns="http://www.w3.org/2000/svg" xmlns:xlink="http://www.w3.org/1999/xlink" x="0px" y="0px"
         preserveAspectRatio="none" viewBox="0 0 460.298 460.297" style="enable-background:new 0 0 460.298 460.297;"
          xml:space="preserve">
<g>
	<g>
		<path d="M230.149,120.939L65.986,256.274c0,0.191-0.048,0.472-0.144,0.855c-0.094,0.38-0.144,0.656-0.144,0.852v137.041
			c0,4.948,1.809,9.236,5.426,12.847c3.616,3.613,7.898,5.431,12.847,5.431h109.63V303.664h73.097v109.64h109.629
			c4.948,0,9.236-1.814,12.847-5.435c3.617-3.607,5.432-7.898,5.432-12.847V257.981c0-0.76-0.104-1.334-0.288-1.707L230.149,120.939
			z"/>
        <path d="M457.122,225.438L394.6,173.476V56.989c0-2.663-0.856-4.853-2.574-6.567c-1.704-1.712-3.894-2.568-6.563-2.568h-54.816
			c-2.666,0-4.855,0.856-6.57,2.568c-1.711,1.714-2.566,3.905-2.566,6.567v55.673l-69.662-58.245
			c-6.084-4.949-13.318-7.423-21.694-7.423c-8.375,0-15.608,2.474-21.698,7.423L3.172,225.438c-1.903,1.52-2.946,3.566-3.14,6.136
			c-0.193,2.568,0.472,4.811,1.997,6.713l17.701,21.128c1.525,1.712,3.521,2.759,5.996,3.142c2.285,0.192,4.57-0.476,6.855-1.998
			L230.149,95.817l197.57,164.741c1.526,1.328,3.521,1.991,5.996,1.991h0.858c2.471-0.376,4.463-1.43,5.996-3.138l17.703-21.125
			c1.522-1.906,2.189-4.145,1.991-6.716C460.068,229.007,459.021,226.961,457.122,225.438z"/>
	</g>
</g>
         <g>
</g>
         <g>
</g>
         <g>
</g>
         <g>
</g>
         <g>
</g>
         <g>
</g>
         <g>
</g>
         <g>
</g>
         <g>
</g>
         <g>
</g>
         <g>
</g>
         <g>
</g>
         <g>
</g>
         <g>
</g>
         <g>
</g>
</svg>


 </symbol>

<!--message-->

    <symbol id="icon-message"  xmlns="http://www.w3.org/2000/svg" preserveAspectRatio="none"  xmlns:xlink="http://www.w3.org/1999/xlink"   viewBox="0 0 511.999 511.999"  >


        <svg version="1.1" id="Capa_1" xmlns="http://www.w3.org/2000/svg" xmlns:xlink="http://www.w3.org/1999/xlink" x="0px" y="0px"
          preserveAspectRatio="none"   viewBox="0 0 511.999 511.999" style="enable-background:new 0 0 511.999 511.999;" xml:space="preserve">
<g>
	<g>
		<path d="M510.156,401.843L480.419,315.3c14.334-29.302,21.909-61.89,21.96-94.679c0.088-57.013-21.97-110.92-62.112-151.79
			C400.117,27.953,346.615,4.942,289.615,4.039C230.51,3.105,174.954,25.587,133.187,67.353
			c-40.274,40.273-62.612,93.366-63.319,150.102C30.174,247.341,6.745,293.936,6.822,343.705
			c0.037,23.29,5.279,46.441,15.212,67.376L1.551,470.689c-3.521,10.247-0.949,21.373,6.713,29.035
			c5.392,5.393,12.501,8.264,19.812,8.264c3.076,0,6.188-0.508,9.223-1.551l59.609-20.483c20.935,9.933,44.086,15.175,67.376,15.212
			c0.084,0,0.164,0,0.248,0c50.51-0.002,97.46-24.035,127.237-64.702c30.987-0.816,61.646-8.317,89.363-21.876l86.544,29.738
			c3.606,1.239,7.304,1.843,10.959,1.843c8.688,0,17.136-3.412,23.545-9.822C511.284,427.242,514.34,414.021,510.156,401.843z
			 M164.53,470.69c-0.065,0-0.134,0-0.199,0c-20.614-0.031-41.085-5.113-59.196-14.695c-3.724-1.969-8.096-2.31-12.078-0.942
			l-61.123,21.003l21.003-61.122c1.368-3.983,1.028-8.355-0.942-12.078c-9.582-18.112-14.664-38.582-14.696-59.197
			c-0.051-33.159,12.848-64.588,35.405-88.122c7.368,44.916,28.775,86.306,61.957,118.898
			c32.937,32.351,74.339,52.949,119.011,59.683C230.084,457.367,198.288,470.69,164.53,470.69z M480.628,414.797
			c-0.867,0.867-1.895,1.103-3.051,0.705l-92.648-31.836c-1.609-0.553-3.283-0.827-4.951-0.827c-2.459,0-4.909,0.595-7.126,1.769
			c-26.453,13.994-56.345,21.416-86.447,21.462c-0.099,0-0.189,0-0.288,0c-100.863,0-184.176-81.934-185.774-182.773
			c-0.805-50.785,18.513-98.514,54.394-134.395c35.881-35.881,83.618-55.192,134.396-54.392
			c100.936,1.601,182.926,85.068,182.77,186.063c-0.047,30.102-7.468,59.995-21.461,86.446c-1.97,3.723-2.31,8.095-0.942,12.078
			l31.835,92.648C481.732,412.905,481.494,413.932,480.628,414.797z"/>
	</g>
</g>
            <g>
	<g>
		<path d="M376.892,139.512h-181.56c-8.416,0-15.238,6.823-15.238,15.238c0,8.416,6.823,15.238,15.238,15.238h181.56
			c8.416,0,15.238-6.823,15.238-15.238C392.13,146.335,385.308,139.512,376.892,139.512z"/>
	</g>
</g>
            <g>
	<g>
		<path d="M376.892,202.183h-181.56c-8.416,0-15.238,6.823-15.238,15.238s6.823,15.238,15.238,15.238h181.56
			c8.416,0,15.238-6.823,15.238-15.238S385.308,202.183,376.892,202.183z"/>
	</g>
</g>
            <g>
	<g>
		<path d="M307.004,264.852H195.331c-8.416,0-15.238,6.823-15.238,15.238c0,8.416,6.823,15.238,15.238,15.238h111.672
			c8.416,0,15.238-6.823,15.238-15.238C322.241,271.675,315.42,264.852,307.004,264.852z"/>
	</g>
</g>
            <g>
</g>
            <g>
</g>
            <g>
</g>
            <g>
</g>
            <g>
</g>
            <g>
</g>
            <g>
</g>
            <g>
</g>
            <g>
</g>
            <g>
</g>
            <g>
</g>
            <g>
</g>
            <g>
</g>
            <g>
</g>
            <g>
</g>
</svg>


    </symbol>




<!--settings-->

<symbol id="icon-settings"  xmlns="http://www.w3.org/2000/svg" preserveAspectRatio="none"  xmlns:xlink="http://www.w3.org/1999/xlink" viewBox="0 0 512 512">


    <svg id="Layer_1" preserveAspectRatio="none"  enable-background="new 0 0 512 512" viewBox="0 0 512 512" xmlns="http://www.w3.org/2000/svg"><path d="m272.066 512h-32.133c-25.989 0-47.134-21.144-47.134-47.133v-10.871c-11.049-3.53-21.784-7.986-32.097-13.323l-7.704 7.704c-18.659 18.682-48.548 18.134-66.665-.007l-22.711-22.71c-18.149-18.129-18.671-48.008.006-66.665l7.698-7.698c-5.337-10.313-9.792-21.046-13.323-32.097h-10.87c-25.988 0-47.133-21.144-47.133-47.133v-32.134c0-25.989 21.145-47.133 47.134-47.133h10.87c3.531-11.05 7.986-21.784 13.323-32.097l-7.704-7.703c-18.666-18.646-18.151-48.528.006-66.665l22.713-22.712c18.159-18.184 48.041-18.638 66.664.006l7.697 7.697c10.313-5.336 21.048-9.792 32.097-13.323v-10.87c0-25.989 21.144-47.133 47.134-47.133h32.133c25.989 0 47.133 21.144 47.133 47.133v10.871c11.049 3.53 21.784 7.986 32.097 13.323l7.704-7.704c18.659-18.682 48.548-18.134 66.665.007l22.711 22.71c18.149 18.129 18.671 48.008-.006 66.665l-7.698 7.698c5.337 10.313 9.792 21.046 13.323 32.097h10.87c25.989 0 47.134 21.144 47.134 47.133v32.134c0 25.989-21.145 47.133-47.134 47.133h-10.87c-3.531 11.05-7.986 21.784-13.323 32.097l7.704 7.704c18.666 18.646 18.151 48.528-.006 66.665l-22.713 22.712c-18.159 18.184-48.041 18.638-66.664-.006l-7.697-7.697c-10.313 5.336-21.048 9.792-32.097 13.323v10.871c0 25.987-21.144 47.131-47.134 47.131zm-106.349-102.83c14.327 8.473 29.747 14.874 45.831 19.025 6.624 1.709 11.252 7.683 11.252 14.524v22.148c0 9.447 7.687 17.133 17.134 17.133h32.133c9.447 0 17.134-7.686 17.134-17.133v-22.148c0-6.841 4.628-12.815 11.252-14.524 16.084-4.151 31.504-10.552 45.831-19.025 5.895-3.486 13.4-2.538 18.243 2.305l15.688 15.689c6.764 6.772 17.626 6.615 24.224.007l22.727-22.726c6.582-6.574 6.802-17.438.006-24.225l-15.695-15.695c-4.842-4.842-5.79-12.348-2.305-18.242 8.473-14.326 14.873-29.746 19.024-45.831 1.71-6.624 7.684-11.251 14.524-11.251h22.147c9.447 0 17.134-7.686 17.134-17.133v-32.134c0-9.447-7.687-17.133-17.134-17.133h-22.147c-6.841 0-12.814-4.628-14.524-11.251-4.151-16.085-10.552-31.505-19.024-45.831-3.485-5.894-2.537-13.4 2.305-18.242l15.689-15.689c6.782-6.774 6.605-17.634.006-24.225l-22.725-22.725c-6.587-6.596-17.451-6.789-24.225-.006l-15.694 15.695c-4.842 4.843-12.35 5.791-18.243 2.305-14.327-8.473-29.747-14.874-45.831-19.025-6.624-1.709-11.252-7.683-11.252-14.524v-22.15c0-9.447-7.687-17.133-17.134-17.133h-32.133c-9.447 0-17.134 7.686-17.134 17.133v22.148c0 6.841-4.628 12.815-11.252 14.524-16.084 4.151-31.504 10.552-45.831 19.025-5.896 3.485-13.401 2.537-18.243-2.305l-15.688-15.689c-6.764-6.772-17.627-6.615-24.224-.007l-22.727 22.726c-6.582 6.574-6.802 17.437-.006 24.225l15.695 15.695c4.842 4.842 5.79 12.348 2.305 18.242-8.473 14.326-14.873 29.746-19.024 45.831-1.71 6.624-7.684 11.251-14.524 11.251h-22.148c-9.447.001-17.134 7.687-17.134 17.134v32.134c0 9.447 7.687 17.133 17.134 17.133h22.147c6.841 0 12.814 4.628 14.524 11.251 4.151 16.085 10.552 31.505 19.024 45.831 3.485 5.894 2.537 13.4-2.305 18.242l-15.689 15.689c-6.782 6.774-6.605 17.634-.006 24.225l22.725 22.725c6.587 6.596 17.451 6.789 24.225.006l15.694-15.695c3.568-3.567 10.991-6.594 18.244-2.304z"/><path d="m256 367.4c-61.427 0-111.4-49.974-111.4-111.4s49.973-111.4 111.4-111.4 111.4 49.974 111.4 111.4-49.973 111.4-111.4 111.4zm0-192.8c-44.885 0-81.4 36.516-81.4 81.4s36.516 81.4 81.4 81.4 81.4-36.516 81.4-81.4-36.515-81.4-81.4-81.4z"/></svg>

</symbol>

<!--profile-->

<symbol id="icon-profile"  xmlns="http://www.w3.org/2000/svg" preserveAspectRatio="none"  xmlns:xlink="http://www.w3.org/1999/xlink" viewBox="0 0 512 512" >

    <svg id="Layer_1" enable-background="new 0 0 512 512"  preserveAspectRatio="none" viewBox="0 0 512 512" xmlns="http://www.w3.org/2000/svg"><g><path d="m256 512c-60.615 0-119.406-21.564-165.543-60.721-10.833-9.188-20.995-19.375-30.201-30.275-38.859-46.06-60.256-104.657-60.256-165.004 0-68.381 26.628-132.668 74.98-181.02s112.639-74.98 181.02-74.98 132.668 26.628 181.02 74.98 74.98 112.639 74.98 181.02c0 60.348-21.397 118.945-60.251 164.998-9.211 10.906-19.373 21.093-30.209 30.284-46.134 39.154-104.925 60.718-165.54 60.718zm0-480c-123.514 0-224 100.486-224 224 0 52.805 18.719 104.074 52.709 144.363 8.06 9.543 16.961 18.466 26.451 26.516 40.364 34.256 91.801 53.121 144.84 53.121s104.476-18.865 144.837-53.119c9.493-8.052 18.394-16.976 26.459-26.525 33.985-40.281 52.704-91.55 52.704-144.356 0-123.514-100.486-224-224-224z"/><path d="m256 256c-52.935 0-96-43.065-96-96s43.065-96 96-96 96 43.065 96 96-43.065 96-96 96zm0-160c-35.29 0-64 28.71-64 64s28.71 64 64 64 64-28.71 64-64-28.71-64-64-64z"/><path d="m411.202 455.084c-1.29 0-2.6-.157-3.908-.485-8.57-2.151-13.774-10.843-11.623-19.414 2.872-11.443 4.329-23.281 4.329-35.185 0-78.285-63.646-142.866-141.893-143.99l-2.107-.01-2.107.01c-78.247 1.124-141.893 65.705-141.893 143.99 0 11.904 1.457 23.742 4.329 35.185 2.151 8.571-3.053 17.263-11.623 19.414s-17.263-3.052-19.414-11.623c-3.512-13.989-5.292-28.448-5.292-42.976 0-46.578 18.017-90.483 50.732-123.63 32.683-33.114 76.285-51.708 122.774-52.358.075-.001.149-.001.224-.001l2.27-.011 2.27.01c.075 0 .149 0 .224.001 46.489.649 90.091 19.244 122.774 52.358 32.715 33.148 50.732 77.053 50.732 123.631 0 14.528-1.78 28.987-5.292 42.976-1.823 7.262-8.343 12.107-15.506 12.108z"/></g></svg>

</symbol>

<!--notification-->

<symbol id="icon-notification"  xmlns="http://www.w3.org/2000/svg" preserveAspectRatio="none"  xmlns:xlink="http://www.w3.org/1999/xlink" viewBox="0 0 512 512" >


    <svg id="Capa_1" preserveAspectRatio="none" enable-background="new 0 0 512 512" viewBox="0 0 512 512"  xmlns="http://www.w3.org/2000/svg"><g><path d="m411 262.862v-47.862c0-69.822-46.411-129.001-110-148.33v-21.67c0-24.813-20.187-45-45-45s-45 20.187-45 45v21.67c-63.59 19.329-110 78.507-110 148.33v47.862c0 61.332-23.378 119.488-65.827 163.756-4.16 4.338-5.329 10.739-2.971 16.267s7.788 9.115 13.798 9.115h136.509c6.968 34.192 37.272 60 73.491 60 36.22 0 66.522-25.808 73.491-60h136.509c6.01 0 11.439-3.587 13.797-9.115s1.189-11.929-2.97-16.267c-42.449-44.268-65.827-102.425-65.827-163.756zm-170-217.862c0-8.271 6.729-15 15-15s15 6.729 15 15v15.728c-4.937-.476-9.94-.728-15-.728s-10.063.252-15 .728zm15 437c-19.555 0-36.228-12.541-42.42-30h84.84c-6.192 17.459-22.865 30-42.42 30zm-177.67-60c34.161-45.792 52.67-101.208 52.67-159.138v-47.862c0-68.925 56.075-125 125-125s125 56.075 125 125v47.862c0 57.93 18.509 113.346 52.671 159.138z"/><path d="m451 215c0 8.284 6.716 15 15 15s15-6.716 15-15c0-60.1-23.404-116.603-65.901-159.1-5.857-5.857-15.355-5.858-21.213 0s-5.858 15.355 0 21.213c36.831 36.831 57.114 85.8 57.114 137.887z"/><path d="m46 230c8.284 0 15-6.716 15-15 0-52.086 20.284-101.055 57.114-137.886 5.858-5.858 5.858-15.355 0-21.213-5.857-5.858-15.355-5.858-21.213 0-42.497 42.497-65.901 98.999-65.901 159.099 0 8.284 6.716 15 15 15z"/></g></svg>

</symbol>

    <!--chat icon-->
    <symbol id="icon-chat"  xmlns="http://www.w3.org/2000/svg" preserveAspectRatio="none"  xmlns:xlink="http://www.w3.org/1999/xlink" viewBox="0 0 512.001 512.001" >

        <svg version="1.1" id="Capa_1" xmlns="http://www.w3.org/2000/svg" xmlns:xlink="http://www.w3.org/1999/xlink" x="0px" y="0px"
             preserveAspectRatio="none" viewBox="0 0 512.001 512.001" style="enable-background:new 0 0 512.001 512.001; fill:#C8C8C8;" xml:space="preserve">
<g>
	<g>
		<g>
			<path d="M468.53,306.575c-4.14-10.239-15.798-15.188-26.038-11.046c-10.241,4.14-15.187,15.797-11.047,26.038L455,379.833
				l-69.958-30.839c-5.064-2.232-10.827-2.267-15.917-0.095c-23.908,10.201-49.52,15.373-76.124,15.373
				c-107.073,0-179-83.835-179-162.136c0-89.402,80.299-162.136,179-162.136s179,72.734,179,162.136
				c0,6.975-0.65,15.327-1.781,22.913c-1.63,10.925,5.905,21.102,16.83,22.732c10.926,1.634,21.103-5.905,22.732-16.83
				c1.431-9.59,2.219-19.824,2.219-28.815c0-54.33-23.006-105.308-64.783-143.543C405.936,20.809,351.167,0,293.001,0
				S180.067,20.809,138.784,58.592c-37.332,34.168-59.66,78.516-63.991,126.335C27.836,216.023,0.001,265.852,0.001,319.525
				c0,33.528,10.563,65.34,30.67,92.717L1.459,484.504c-3.051,7.546-1.224,16.189,4.621,21.855
				c3.809,3.694,8.828,5.642,13.925,5.642c2.723-0.001,5.469-0.556,8.063-1.7l84.229-37.13c21.188,7.887,43.585,11.88,66.703,11.88
				c0.5,0,0.991-0.039,1.482-0.075c33.437-0.253,65.944-9.048,94.098-25.507c25.218-14.744,45.962-34.998,60.505-58.917
				c14.199-2.55,28.077-6.402,41.547-11.551l107.301,47.3c2.595,1.143,5.34,1.7,8.063,1.7c5.097-0.001,10.117-1.949,13.926-5.642
				c5.845-5.666,7.672-14.308,4.621-21.855L468.53,306.575z M179.002,445c-0.273,0-0.539,0.03-0.81,0.041
				c-20.422-0.104-40.078-4.118-58.435-11.95c-5.089-2.173-10.852-2.138-15.916,0.095l-46.837,20.646l15.109-37.375
				c2.793-6.909,1.512-14.799-3.322-20.47c-18.835-22.097-28.79-48.536-28.79-76.462c0-31.961,13.445-62.244,36.969-85.206
				c7.324,39.925,27.989,78.117,59.162,108.119c38.791,37.333,90.101,58.961,145.506,61.565
				C255.626,429.608,218.402,445,179.002,445z"/>
            <circle cx="292.001" cy="203" r="20"/>
            <circle cx="372.001" cy="203" r="20"/>
            <circle cx="212.001" cy="203" r="20"/>
		</g>
	</g>
</g>
            <g>
</g>
            <g>
</g>
            <g>
</g>
            <g>
</g>
            <g>
</g>
            <g>
</g>
            <g>
</g>
            <g>
</g>
            <g>
</g>
            <g>
</g>
            <g>
</g>
            <g>
</g>
            <g>
</g>
            <g>
</g>
            <g>
</g>
</svg>

    </symbol>


<!--close-->

<symbol id="icon-close"  xmlns="http://www.w3.org/2000/svg" viewBox="0 0 329.26933 329" preserveAspectRatio="none"  xmlns:xlink="http://www.w3.org/1999/xlink" >

    <svg  viewBox="0 0 329.26933 329" style="fill:#F2F2F2;" preserveAspectRatio="none" xmlns="http://www.w3.org/2000/svg"><path d="m194.800781 164.769531 128.210938-128.214843c8.34375-8.339844 8.34375-21.824219 0-30.164063-8.339844-8.339844-21.824219-8.339844-30.164063 0l-128.214844 128.214844-128.210937-128.214844c-8.34375-8.339844-21.824219-8.339844-30.164063 0-8.34375 8.339844-8.34375 21.824219 0 30.164063l128.210938 128.214843-128.210938 128.214844c-8.34375 8.339844-8.34375 21.824219 0 30.164063 4.15625 4.160156 9.621094 6.25 15.082032 6.25 5.460937 0 10.921875-2.089844 15.082031-6.25l128.210937-128.214844 128.214844 128.214844c4.160156 4.160156 9.621094 6.25 15.082032 6.25 5.460937 0 10.921874-2.089844 15.082031-6.25 8.34375-8.339844 8.34375-21.824219 0-30.164063zm0 0"/></svg>
</symbol>
</defs>
</svg>
